<?xml version="1.0" encoding="utf-8"?>
<!-- Svg Vector Icons : http://www.onlinewebfonts.com/icon -->
<!DOCTYPE svg PUBLIC "-//W3C//DTD SVG 1.1//EN" "http://www.w3.org/Graphics/SVG/1.1/DTD/svg11.dtd">
<svg version="1.1" xmlns="http://www.w3.org/2000/svg" xmlns:xlink="http://www.w3.org/1999/xlink" x="0px" y="0px" viewBox="0 0 256 256" enable-background="new 0 0 256 256" xml:space="preserve">
<metadata> Svg Vector Icons : http://www.onlinewebfonts.com/icon </metadata>
<g> <path fill="#000000" d="M219.8,192.3c0.8,2.3,1.4,5.4,1.8,9c0.4,3.7,0.6,7.4,0.6,11c0,3.7-0.3,7.2-0.8,10.4 c-0.5,3.3-1.4,5.8-2.5,7.5c-0.8,1.1-3,2.3-6.7,3.5c-3.7,1.3-8.2,2.5-13.5,3.6s-11.3,2.3-17.9,3.3c-6.7,1-13.3,1.9-19.8,2.7 c-6.6,0.8-12.9,1.4-19.1,1.9c-6.2,0.5-11.5,0.7-16.1,0.7c-6.9,0-15-0.5-24.4-1.5c-9.4-1-18.5-2.2-27.4-3.6 c-8.9-1.4-16.7-2.9-23.5-4.3s-10.8-2.8-12.2-3.9c-1.7-1.3-3-5.1-3.9-11.5c-0.9-6.4-0.5-14.6,1.1-24.6c0.9-5.8,3.3-10.2,7-13.1 s8.2-5.3,13.3-7c5.1-1.7,10.3-3.3,15.7-4.7c5.4-1.4,10.1-3.4,14.2-6.1c3.3-2,5.8-4,7.6-5.9c1.8-1.9,3.1-3.8,3.8-5.6 c0.7-1.9,1.1-3.8,1.1-5.9s-0.1-4.2-0.2-6.6c-0.3-3.8-1.5-6.6-3.6-8.7c-2.1-2-4.5-4.1-7.2-6.3c-1.3-1.1-2.3-2.6-3.3-4.6 c-0.9-2-1.8-3.9-2.6-6c-0.8-2.3-1.6-4.8-2.3-7.3c-1.1-0.3-2.2-0.9-3.3-1.6c-0.9-0.8-2-1.9-3-3.3c-1.1-1.4-2-3.4-2.8-6.1 c-0.8-2.7-1.1-5-0.8-7.2c0.2-2.1,0.7-3.9,1.3-5.5c0.6-1.7,1.6-3.4,2.8-4.9c-0.2-5.9,0.2-11.9,0.9-17.8c0.6-5,1.8-10.3,3.4-16 c1.6-5.6,4-10.7,7.2-15.2c3-4.2,6.3-7.7,10-10.4c3.7-2.7,7.4-4.9,11.1-6.4c3.8-1.6,7.5-2.7,11.4-3.3c3.8-0.6,7.5-0.9,11.1-0.9 c4.5,0,8.9,0.5,13,1.6c4.1,1.1,8,2.5,11.6,4.2c3.6,1.7,6.8,3.6,9.6,5.8c2.8,2.1,5.1,4.3,6.8,6.4c3.9,5,6.8,10.5,8.8,16.5 c2,6,3.3,11.7,4.1,17c0.9,6.3,1.3,12.5,1.2,18.8c1.1,0.6,2,1.6,2.6,2.8c0.6,1.1,1.1,2.5,1.5,4.2c0.4,1.7,0.4,3.8,0.1,6.3 c-0.5,3.3-1.2,5.9-2.2,7.9c-1,2-2.2,3.5-3.4,4.6c-1.4,1.3-2.9,2.1-4.5,2.6c-0.6,2.5-1.3,4.9-2.1,7.3c-0.8,2-1.7,4-2.7,6 c-1,2-2.2,3.5-3.4,4.6c-1.4,1.3-2.7,2.3-4,3.2c-1.3,0.9-2.3,1.8-3.3,2.7c-0.9,0.9-1.7,2.1-2.3,3.4c-0.6,1.3-1.1,2.9-1.4,4.8 c-0.5,2.3-0.6,4.7-0.5,7.2c0.2,2.4,0.8,4.8,1.9,7.3s2.9,4.7,5.4,6.9c2.5,2.2,5.9,4.1,10.1,5.9c3.9,1.6,8.2,2.9,12.8,4.1 c4.6,1.2,9.1,2.6,13.4,4.2c4.3,1.6,8.1,3.7,11.5,6.2C216,184.9,218.4,188.2,219.8,192.3L219.8,192.3z M129.7,230.7 c0.8,0,2-0.5,3.6-1.5c1.6-1,3.2-2.2,4.8-3.6c1.6-1.4,2.9-2.8,4.1-4.2c1.2-1.4,1.8-2.5,1.8-3.3c0-0.9-0.2-2.6-0.7-4.9 c-0.5-2.3-1-4.9-1.6-7.7c-0.6-2.8-1.3-5.6-1.9-8.3c-0.6-2.7-1.2-5-1.6-6.7c1.6-1.3,2.9-2.6,4-4.1c1.1-1.5,1.6-3,1.6-4.6 c0-1.3-0.4-2.5-1.3-3.9c-0.9-1.3-1.8-2.5-2.9-3.4c-1.3-1.1-2.6-2.2-4-3.3h-11.7c-1.6,1.1-2.9,2.2-4,3.3c-0.9,0.9-1.8,2-2.6,3.3 c-0.8,1.3-1.2,2.5-1.2,3.8c0,0.9,0.6,2.2,1.8,3.8c1.2,1.6,2.6,3,4.3,4.5c-0.5,1.4-1.1,3.4-1.9,6.1c-0.8,2.7-1.5,5.4-2.2,8.3 s-1.3,5.6-1.9,8.2c-0.5,2.6-0.8,4.5-0.8,5.8c0,0.8,0.6,1.9,1.8,3.3c1.2,1.4,2.6,2.8,4.2,4.2c1.6,1.4,3.3,2.6,4.8,3.6 C127.7,230.3,128.9,230.8,129.7,230.7L129.7,230.7z"/></g>
</svg>